<svg id="Layer_1" data-name="Layer 1" xmlns="http://www.w3.org/2000/svg" viewBox="0 0 272.73 100"><defs><style>.cls-1{fill:#ffca05;}.cls-2{fill:#1a1a1a;}</style></defs><path class="cls-1" d="M283.81,60.47c0-11.3-10.93-20.9-20.1-24.36-3.34-9.53-12.58-20.88-23.46-20.88s-20.12,11.35-23.46,20.88c-9.17,3.46-20.1,13.06-20.1,24.36s10.93,20.9,20.1,24.37c3.34,9.53,12.58,20.87,23.46,20.87s20.12-11.34,23.46-20.87C272.88,81.37,283.81,71.77,283.81,60.47Zm-43.56,0Z" transform="translate(-11.08 -6.01)"></path><path class="cls-2" d="M245.44,30.72c-1.53,1.59-3.9,4.94-7,15.57l4.42,4.59L248,49.75c2.77-9.65,4.51-11.54,4.59-11.62a6.34,6.34,0,0,1,9.19,0,7,7,0,0,1,0,9.55c-.08.08-2,2-12.09,5-.92.28-1.84.54-2.71.79l-5.19,1.14L218.53,30.51H211.4v7.41h0l18.87,19.59c-.72.2-1.45.42-2.19.64-11.42,3.44-14.87,6.05-16.47,7.71a17.71,17.71,0,0,0,0,24.36,16.16,16.16,0,0,0,23.45,0c1.53-1.59,3.89-4.94,7-15.56l-4.42-4.59-5.11,1.13c-2.77,9.65-4.51,11.54-4.59,11.61a6.32,6.32,0,0,1-9.19,0,6.92,6.92,0,0,1,0-9.54c.08-.08,2-2,12.09-5,.92-.28,1.84-.54,2.71-.79l5.18-1.15L262,90.43h7.13V83L250.23,63.44l2.19-.64c11.42-3.44,14.87-6,16.47-7.72a17.71,17.71,0,0,0,0-24.36A16.18,16.18,0,0,0,245.44,30.72Z" transform="translate(-11.08 -6.01)"></path><path class="cls-2" d="M29.91,69.5H21.2L11.08,97.19h7.21l2.11-5.9h10l2,5.9h7.79ZM22,86.06l3.43-10.84h.1l3.17,10.84Z" transform="translate(-11.08 -6.01)"></path><path class="cls-2" d="M48.94,90h-.07L44.6,76.53H37.18l8.07,21.15A4,4,0,0,1,44,99.8a3.44,3.44,0,0,1-2.19.73,9.69,9.69,0,0,1-1.37-.1,9,9,0,0,1-1.34-.33l-.46,5.42a17.43,17.43,0,0,0,2.12.37,19.32,19.32,0,0,0,2.17.12,9.49,9.49,0,0,0,2.14-.23,6.8,6.8,0,0,0,1.76-.64,6.55,6.55,0,0,0,1.43-1,9,9,0,0,0,1.15-1.31,14.67,14.67,0,0,0,1.79-3.27c.49-1.22,1-2.48,1.46-3.8l7.29-19.23H53Z" transform="translate(-11.08 -6.01)"></path><polygon class="cls-2" points="67.79 81.91 67.71 81.91 62.06 63.5 50.88 63.5 50.88 91.19 57.83 91.19 57.66 69.93 57.76 69.93 64.24 91.19 70.77 91.19 77.56 69.93 77.65 69.93 77.52 91.19 84.47 91.19 84.47 63.5 73.72 63.5 67.79 81.91"></polygon><path class="cls-2" d="M118.41,92.31V84.63a9.39,9.39,0,0,0-.77-4A7.13,7.13,0,0,0,115.58,78a8.31,8.31,0,0,0-3-1.48,14.19,14.19,0,0,0-3.62-.45,24.62,24.62,0,0,0-4.16.33A16.11,16.11,0,0,0,101,77.52l.11,4.84a11.17,11.17,0,0,1,3-1.19,14.88,14.88,0,0,1,3.29-.36,8.68,8.68,0,0,1,1.73.17,4.15,4.15,0,0,1,1.45.57,2.82,2.82,0,0,1,1,1.09,3.74,3.74,0,0,1,.36,1.74,14.92,14.92,0,0,0-1.5-.2c-.58-.05-1.15-.08-1.71-.08a24.22,24.22,0,0,0-3.15.24,9.7,9.7,0,0,0-1.72.34,11.08,11.08,0,0,0-1.63.61,7.13,7.13,0,0,0-2.69,2.11,5.93,5.93,0,0,0-1.08,3.77,6.41,6.41,0,0,0,.62,2.91,5.83,5.83,0,0,0,1.65,2,6.78,6.78,0,0,0,2.37,1.19,10.11,10.11,0,0,0,2.82.39,8.06,8.06,0,0,0,2-.22,6.59,6.59,0,0,0,1.67-.68A6.18,6.18,0,0,0,111,95.62a10.48,10.48,0,0,0,1.25-1.68h.08c0,.54,0,1.08.05,1.62s.07,1.08.1,1.63h6.3a22.56,22.56,0,0,1-.31-2.42C118.43,94,118.41,93.14,118.41,92.31Zm-6.72-2.49a5.1,5.1,0,0,1-.84,1.56,4.5,4.5,0,0,1-1.34,1.11,3.63,3.63,0,0,1-1.75.43,4,4,0,0,1-1.13-.16,2.58,2.58,0,0,1-.89-.45,2.09,2.09,0,0,1-.8-1.66,2.15,2.15,0,0,1,1.2-2.11,6.57,6.57,0,0,1,3-.62c.52,0,1,0,1.52,0L112,88A5.45,5.45,0,0,1,111.69,89.82Z" transform="translate(-11.08 -6.01)"></path><polygon class="cls-2" points="131.37 70.53 123.86 70.53 118.11 79.22 118.04 79.22 118.04 61.45 111.18 61.45 111.18 91.19 118.04 91.19 118.04 80.96 118.11 80.96 123.61 91.19 131.95 91.19 124.45 80 131.37 70.53"></polygon><path class="cls-2" d="M162.62,92.31V84.63a9.39,9.39,0,0,0-.76-4A7.13,7.13,0,0,0,159.8,78a8.31,8.31,0,0,0-3-1.48,14.25,14.25,0,0,0-3.62-.45,24.83,24.83,0,0,0-4.17.33,16.18,16.18,0,0,0-3.77,1.14l.11,4.84a11.17,11.17,0,0,1,3-1.19,14.88,14.88,0,0,1,3.29-.36,8.68,8.68,0,0,1,1.73.17,4.15,4.15,0,0,1,1.45.57,3,3,0,0,1,1,1.09,3.74,3.74,0,0,1,.36,1.74,14.92,14.92,0,0,0-1.5-.2c-.58-.05-1.15-.08-1.71-.08a24.22,24.22,0,0,0-3.15.24,9.7,9.7,0,0,0-1.72.34,10.67,10.67,0,0,0-1.63.61,7.13,7.13,0,0,0-2.69,2.11,5.93,5.93,0,0,0-1.08,3.77,6.41,6.41,0,0,0,.61,2.91,5.94,5.94,0,0,0,1.65,2,6.83,6.83,0,0,0,2.38,1.19,10.11,10.11,0,0,0,2.82.39,7.92,7.92,0,0,0,1.95-.22,6.3,6.3,0,0,0,1.67-.68,6,6,0,0,0,1.43-1.16,11.12,11.12,0,0,0,1.25-1.68h.07q0,.81.06,1.62c0,.53.07,1.08.09,1.63H163a22.52,22.52,0,0,1-.3-2.42Q162.62,93.56,162.62,92.31Zm-6.71-2.49a5.13,5.13,0,0,1-.85,1.56,4.34,4.34,0,0,1-1.33,1.11,3.66,3.66,0,0,1-1.75.43,4,4,0,0,1-1.13-.16,2.58,2.58,0,0,1-.89-.45,2.11,2.11,0,0,1-.58-.71,2,2,0,0,1-.22-.95,2.15,2.15,0,0,1,1.2-2.11,6.51,6.51,0,0,1,3-.62c.52,0,1,0,1.52,0l1.37.08A5.45,5.45,0,0,1,155.91,89.82Z" transform="translate(-11.08 -6.01)"></path><path class="cls-2" d="M186.69,81.22a7.39,7.39,0,0,0-1.33-2.64A6.47,6.47,0,0,0,183,76.74a8,8,0,0,0-3.48-.69,9.85,9.85,0,0,0-2.26.25,7.84,7.84,0,0,0-2,.78,6.83,6.83,0,0,0-2.95,3.27h-.08V76.53h-6.26V97.19h6.86V88.46a8.83,8.83,0,0,1,1.07-4.91A3.69,3.69,0,0,1,177.08,82a2.71,2.71,0,0,1,2.27,1.15,6.74,6.74,0,0,1,.9,4v10h6.86V84.3A11.28,11.28,0,0,0,186.69,81.22Z" transform="translate(-11.08 -6.01)"></path><path class="cls-2" d="M16.12,52.9a11.86,11.86,0,0,0,4.25,2.85,16.19,16.19,0,0,0,6.17,1.06,16.06,16.06,0,0,0,6.13-1.1,13,13,0,0,0,7.49-7.62,16.23,16.23,0,0,0,1-5.79A15.84,15.84,0,0,0,41,40c-.13-.86-.3-1.74-.52-2.64s-.46-1.79-.72-2.67-.54-1.67-.8-2.4l-7.35,2a21.51,21.51,0,0,1,.88,2.28c.25.78.46,1.53.64,2.25s.3,1.38.39,2a10.7,10.7,0,0,1,.14,1.48,10.45,10.45,0,0,1-.46,3.25A6.82,6.82,0,0,1,31.84,48a5.6,5.6,0,0,1-2.09,1.49A7.12,7.12,0,0,1,27,50a8.27,8.27,0,0,1-3-.5,6,6,0,0,1-2.13-1.37A5.73,5.73,0,0,1,20.57,46a7.43,7.43,0,0,1-.44-2.58,10.56,10.56,0,0,1,.53-3.1,15.26,15.26,0,0,1,1.42-3.16L19,35.48c-1-.56-2.08-1.13-3.13-1.73a18.45,18.45,0,0,0-1.26,2.47,22.58,22.58,0,0,0-.93,2.65,20.29,20.29,0,0,0-.57,2.65A16.46,16.46,0,0,0,12.88,44a14.82,14.82,0,0,0,.79,4.83A11.13,11.13,0,0,0,16.12,52.9Z" transform="translate(-11.08 -6.01)"></path><path class="cls-2" d="M24.57,28.5a3.63,3.63,0,0,0,1.13.8,3.41,3.41,0,0,0,1.38.29,3.38,3.38,0,0,0,1.38-.29,3.7,3.7,0,0,0,1.12-.8,3.88,3.88,0,0,0,.76-4.09,3.92,3.92,0,0,0-.76-1.18,3.73,3.73,0,0,0-1.12-.81,3.38,3.38,0,0,0-1.38-.29,3.41,3.41,0,0,0-1.38.29,3.66,3.66,0,0,0-1.13.81,3.84,3.84,0,0,0-.76,4.1A3.58,3.58,0,0,0,24.57,28.5Z" transform="translate(-11.08 -6.01)"></path><path class="cls-2" d="M156.8,63.68a3.19,3.19,0,0,0,1.37.3,3.16,3.16,0,0,0,1.37-.3,3.6,3.6,0,0,0,1.13-.79,3.92,3.92,0,0,0,.76-1.18,3.92,3.92,0,0,0,0-2.91,4,4,0,0,0-.76-1.19,3.47,3.47,0,0,0-1.13-.8,3.16,3.16,0,0,0-1.37-.3,3.19,3.19,0,0,0-1.37.3,3.54,3.54,0,0,0-1.12.8,3.78,3.78,0,0,0-.76,1.19,3.8,3.8,0,0,0,0,2.91,3.74,3.74,0,0,0,.76,1.18A3.67,3.67,0,0,0,156.8,63.68Z" transform="translate(-11.08 -6.01)"></path><path class="cls-2" d="M148.81,63.68a3.31,3.31,0,0,0,1.39.3,3.19,3.19,0,0,0,1.37-.3,3.55,3.55,0,0,0,1.12-.79,3.74,3.74,0,0,0,.76-1.18,3.8,3.8,0,0,0,0-2.91,3.78,3.78,0,0,0-.76-1.19,3.43,3.43,0,0,0-1.12-.8,3.19,3.19,0,0,0-1.37-.3,3.31,3.31,0,0,0-1.39.3,3.47,3.47,0,0,0-1.13.8,4,4,0,0,0-.76,1.19,3.92,3.92,0,0,0,0,2.91,3.92,3.92,0,0,0,.76,1.18A3.6,3.6,0,0,0,148.81,63.68Z" transform="translate(-11.08 -6.01)"></path><path class="cls-2" d="M167.78,48.12a9.73,9.73,0,0,0,1.35-2.59,8,8,0,0,0,.47-2.64,4.63,4.63,0,0,0-.39-1.89,7,7,0,0,0-1.05-1.7,10.83,10.83,0,0,0-1.51-1.52c-.56-.48-1.16-1-1.79-1.4-.31-.21-.61-.44-.9-.66a6.63,6.63,0,0,1-.77-.7,3.19,3.19,0,0,1-.54-.73,1.6,1.6,0,0,1-.2-.76,1.21,1.21,0,0,1,.18-.68,1.35,1.35,0,0,1,.46-.43,1.86,1.86,0,0,1,.63-.2,4,4,0,0,1,.7-.06,6.8,6.8,0,0,1,1.75.27c.66.19,1.3.38,1.92.6s1.44.55,2.17.85L172,27.2c-.09,0-.36-.14-.81-.29s-1-.32-1.68-.49-1.39-.33-2.17-.47a13.2,13.2,0,0,0-2.3-.21,14.21,14.21,0,0,0-2.3.2,12.42,12.42,0,0,0-2.3.62,11.65,11.65,0,0,0-2.15,1.07,7.41,7.41,0,0,0-1.77,1.52,7.25,7.25,0,0,0-1.2,2,7,7,0,0,0-.44,2.52,6,6,0,0,0,.45,2.38A8.63,8.63,0,0,0,156.51,38a12,12,0,0,0,1.54,1.64c.57.49,1.13,1,1.67,1.39.28.22.56.44.83.67a7,7,0,0,1,.73.69,3.72,3.72,0,0,1,.51.67,1.32,1.32,0,0,1,.2.64,2.21,2.21,0,0,1-.6,1.48,5.06,5.06,0,0,1-1.61,1.22,9.83,9.83,0,0,1-2.37.82,14.09,14.09,0,0,1-2.89.29,13.56,13.56,0,0,1-3.9-.49,7.47,7.47,0,0,1-2.69-1.35,5.43,5.43,0,0,1-1.58-2,6,6,0,0,1-.51-2.48,8.75,8.75,0,0,1,.62-3,12,12,0,0,1,1.9-3.27l-6.28-3.39a18.51,18.51,0,0,0-1.52,2.35,21.57,21.57,0,0,0-1.2,2.53,18.61,18.61,0,0,0-.78,2.59,11.76,11.76,0,0,0-.28,2.54,11.25,11.25,0,0,0,.35,2.74,10.89,10.89,0,0,0,1.12,2.84,12.12,12.12,0,0,0,2,2.67A12.51,12.51,0,0,0,144.85,52a17.87,17.87,0,0,0,4.23,1.54,24.11,24.11,0,0,0,5.52.58,19.31,19.31,0,0,0,4.34-.47,16.7,16.7,0,0,0,3.69-1.29,14.06,14.06,0,0,0,3-1.91A12.64,12.64,0,0,0,167.78,48.12Z" transform="translate(-11.08 -6.01)"></path><rect class="cls-2" x="165.97" y="12.65" width="7.54" height="31.33"></rect><path class="cls-2" d="M185.31,11.77h-1.83a4.08,4.08,0,0,1-.77-.07,3.38,3.38,0,0,1-.72-.24,1.63,1.63,0,0,1-.54-.42.89.89,0,0,1,.22-1.34,2.05,2.05,0,0,1,1.19-.3,8.31,8.31,0,0,1,1,.06,5.39,5.39,0,0,1,1,.24l.32-3.41-1.07-.15a7,7,0,0,0-.83-.09l-.66,0H182a5.72,5.72,0,0,0-1.69.25,4.62,4.62,0,0,0-1.5.76,4,4,0,0,0-1.08,1.29,4,4,0,0,0-.4,1.85,3.38,3.38,0,0,0,.48,1.61h-1.4v3.46h8.88Z" transform="translate(-11.08 -6.01)"></path><path class="cls-2" d="M127,46.75a9,9,0,0,0,1.73-3.39,14.83,14.83,0,0,0,.52-3.93,17.82,17.82,0,0,0-.6-4.76,10.56,10.56,0,0,0-1.82-3.73,8.38,8.38,0,0,0-3.1-2.43,10.07,10.07,0,0,0-4.36-.88,9.85,9.85,0,0,0-4.13.85A10,10,0,0,0,112,30.86a10.75,10.75,0,0,0-2.18,3.65,13.42,13.42,0,0,0-.77,4.6c0,3.24-1,4.26-3.1,4.26h-4.47a13.29,13.29,0,0,0,.8-4.68c0-2.48-2-9.79-10.2-9.79H71.13l6.58-11.29L72,13.89,62,30.64l2.63,5H92.12a3.76,3.76,0,0,1,3.93,3.79,3.9,3.9,0,0,1-3.93,4h-33l-.28,0H56.41a2.07,2.07,0,0,1-1.74-.68,3.69,3.69,0,0,1-.52-2.21V18.65H46.61V42a11.61,11.61,0,0,0,.44,3.39,6.15,6.15,0,0,0,1.38,2.5,5.91,5.91,0,0,0,2.4,1.53,10.35,10.35,0,0,0,3.49.52H92a11.83,11.83,0,0,0,6.42-2.31,5.78,5.78,0,0,0,.61-.53L101,50h5.25a5.09,5.09,0,0,0,2.82-.85,5.65,5.65,0,0,0,2.08-2.68,7.72,7.72,0,0,0,1.77,1.79,8.27,8.27,0,0,0,2,1.09,9.27,9.27,0,0,0,2.17.52,17.92,17.92,0,0,0,2.2.13,10.68,10.68,0,0,0,4.57-.88A8.5,8.5,0,0,0,127,46.75Zm-4.63-4.11a4.33,4.33,0,0,1-6.3,0,5.45,5.45,0,0,1-1-3.22,6.79,6.79,0,0,1,.33-2.18,5.65,5.65,0,0,1,.9-1.67,3.88,3.88,0,0,1,1.32-1.07,3.68,3.68,0,0,1,1.6-.37,3.46,3.46,0,0,1,1.54.37,4,4,0,0,1,1.3,1.07,5.91,5.91,0,0,1,.91,1.67,6.27,6.27,0,0,1,.36,2.18A5.29,5.29,0,0,1,122.35,42.64Z" transform="translate(-11.08 -6.01)"></path></svg>
